<?xml version="1.0" encoding="UTF-8"?>
<svg id="Layer_2" data-name="Layer 2" xmlns="http://www.w3.org/2000/svg" viewBox="0 0 47.62 53.98">
  <defs>
    <style>
      .cls-1 {
        fill: #f05a26;
      }

      .cls-2 {
        fill: #fff;
      }
    </style>
  </defs>
  <g id="Layer_1-2" data-name="Layer 1">
    <g>
      <path class="cls-1" d="M37,0H10.62C4.75,0,0,4.75,0,10.62v5.73c0,5.87,4.75,10.62,10.62,10.62h15.47s7.79,5.15,7.79,5.15c1.2,1.09,3.12.24,3.12-1.38v-3.77c5.87,0,10.62-4.75,10.62-10.62v-5.73c0-5.87-4.75-10.62-10.62-10.62Z"/>
      <g>
        <path class="cls-2" d="M10.62,52.98c-5.3,0-9.62-4.32-9.62-9.62v-5.73c0-5.3,4.32-9.62,9.62-9.62h1v-4.77c0-.55.45-.87.88-.87.21,0,.4.08.57.23l.06.05,8.1,5.36h15.77c5.3,0,9.62,4.32,9.62,9.62v5.73c0,5.3-4.32,9.62-9.62,9.62H10.62Z"/>
        <path d="M12.62,23.51h.02s7.79,5.16,7.79,5.16l.5.33h16.07c4.75,0,8.62,3.87,8.62,8.62v5.73c0,4.75-3.87,8.62-8.62,8.62H10.62c-4.75,0-8.62-3.87-8.62-8.62v-5.73c0-4.75,3.87-8.62,8.62-8.62h2v-5.5M12.5,21.37c-.96,0-1.88.75-1.88,1.87v3.77c-5.87,0-10.62,4.75-10.62,10.62v5.73c0,5.87,4.75,10.62,10.62,10.62h26.38c5.87,0,10.62-4.75,10.62-10.62v-5.73c0-5.87-4.75-10.62-10.62-10.62h-15.47l-7.79-5.15c-.37-.34-.81-.49-1.24-.49h0Z"/>
      </g>
      <path class="cls-1" d="M26.09,26.97l7.79,5.15c1.2,1.09,3.12.24,3.12-1.38v-5.71h-10.91v1.94Z"/>
    </g>
  </g>
</svg>