<?xml version="1.0" encoding="UTF-8"?>
<svg id="Layer_2" data-name="Layer 2" xmlns="http://www.w3.org/2000/svg" viewBox="0 0 97.48 52.6">
  <defs>
    <style>
      .cls-1 {
        fill: #f05a26;
      }

      .cls-2 {
        fill: #fff;
      }

      .cls-3 {
        fill: #1e293b;
      }

      .cls-4 {
        fill: #1e293b;
      }
    </style>
  </defs>
  <g id="Layer_1-2" data-name="Layer 1">
    <g>
      <path class="cls-1" d="M86.2,0H11.28C5.05,0,0,5.05,0,11.28v7.71c0,6.23,5.05,11.28,11.28,11.28h17.78v-2.89l4.37,2.89h41.19l8.27,5.47c1.27,1.16,3.32.25,3.32-1.47v-4c6.23,0,11.28-5.05,11.28-11.28v-7.71c0-6.23-5.05-11.28-11.28-11.28Z"/>
      <g>
        <path class="cls-2" d="M7.98,23.67c.03-4.08.05-8.74.05-14h2.6c0,5.27-.02,9.95-.05,14.02l-2.6-.03Z"/>
        <path class="cls-2" d="M11.77,12.98c.54-1.2,1.45-2.08,2.73-2.65,1.11-.52,2.31-.74,3.59-.66,1.03.03,1.97.27,2.83.71.15-.49.23-.97.23-1.44h2.6c0,1.04-.19,1.97-.58,2.78-.02.05-.12.24-.3.56.22.47.33.94.33,1.41,0,1.33.02,2.68.05,4.04.02,1.18.03,2.43.03,3.76v2.25l-2.6-.05v-2.15c-.03-.64-.24-1.25-.61-1.82-.47-.74-1.11-1.33-1.92-1.77-.76-.44-1.47-.63-2.15-.58-.59.02-1.04.25-1.36.71-.27.4-.38.88-.33,1.44.05.54.26.95.63,1.24.44.35,1.04.47,1.82.35l.38,2.58c-1.53.24-2.81-.07-3.84-.91-.93-.74-1.46-1.73-1.59-2.98-.13-1.21.13-2.28.81-3.21.74-1.08,1.79-1.68,3.13-1.82v.03c.05-.02.12-.03.2-.03,1.18-.08,2.37.22,3.59.91.4.22.8.49,1.19.81-.02-.82-.03-1.77-.03-2.83-.05-.3-.25-.58-.61-.83-.52-.34-1.2-.53-2.02-.58-.88-.03-1.67.12-2.37.45-.69.3-1.18.76-1.47,1.36l-2.35-1.09Z"/>
        <path class="cls-2" d="M13.51,5.45h.58c.3.02.83.03,1.57.03,1.01.02,2.55.03,4.62.03v-.68c0-.19,0-.38-.01-.58,0-.2-.02-.36-.03-.48,0-.12-.01-.24-.01-.35h2.6c0,.08,0,.26.01.53,0,.27.01.53.01.78.02.32.03.66.03,1.01.02.47.02.9,0,1.29v1.09c-1.58.02-4.01,0-7.28-.03-.72,0-1.25,0-1.57-.03h-.58l.05-2.6Z"/>
        <path class="cls-2" d="M28.56,17.5v.03c-.61-.05-1.07.06-1.39.33-.25.24-.4.56-.43.96-.05.44.07.87.35,1.29.37.47.86.79,1.47.96.35.08.67.12.96.1.79,0,1.46-.19,2-.58.54-.39.86-.91.96-1.57v-.1c.02-1.45,0-3.1-.03-4.95v-.25c-.03-2.59-.05-3.93-.05-4.02h2.6c0,.07.02,1.4.05,3.99v.23c.03,1.99.04,3.76.03,5.33h-.03v.1c-.19,1.41-.86,2.54-2.02,3.36-.99.71-2.16,1.06-3.49,1.06-1.31.03-2.48-.31-3.49-1.04-1.15-.83-1.79-1.96-1.95-3.41v-.35s0-.09.01-.18c0-.08.01-.14.01-.18.08-1.01.47-1.86,1.16-2.55-.67-.71-1.05-1.52-1.14-2.45-.1-1.15.25-2.1,1.06-2.86.84-.79,1.97-1.14,3.39-1.04l-.18,2.6c-.64-.05-1.12.06-1.44.33-.19.19-.27.43-.25.73.05.39.24.72.56.99.42.37.99.56,1.69.56v2.6c-.19,0-.33,0-.43-.03Z"/>
        <path class="cls-2" d="M39.9,9.64c2.78-.2,4.94.4,6.49,1.82,1.41,1.31,2.07,2.99,1.97,5.03-.1,1.92-.85,3.58-2.25,4.98s-3.2,2.17-5.31,2.22l-.23.08v-.03s-.03-.03-.03-.05h-.05v-.15c-1.99-5.29-3.5-9.26-4.55-11.92l2.43-.96c1.23,3.17,2.53,6.56,3.89,10.18.74-.22,1.41-.62,2-1.21.91-.91,1.41-2,1.49-3.28.08-1.2-.29-2.18-1.11-2.96-1.01-.91-2.53-1.29-4.55-1.14l-.2-2.6Z"/>
        <path class="cls-2" d="M49.47,23.74c.02-1.36,0-4.94-.03-10.74-.02-.25-.03-.5-.03-.73-.02-1.99-.03-4.22-.03-6.7,0-.29-.07-.48-.2-.58-.12-.12-.27-.18-.45-.18-.2,0-.38.06-.53.18-.12.12-.19.27-.2.45v2.4h-2.6v-2.4c.03-.99.4-1.79,1.11-2.4.61-.56,1.35-.83,2.22-.83s1.6.29,2.22.86c.69.64,1.04,1.47,1.04,2.48,0,2.46,0,4.69.03,6.7,0,.24,0,.48.03.73.03,5.81.04,9.4.03,10.76h-2.6Z"/>
        <path class="cls-2" d="M54.24,9.77c1.97,1.28,2.96,2.66,2.98,4.14.02.37-.06.86-.23,1.47-.05.19-.13.4-.23.63-.03.17-.11.37-.23.61-.24.72-.38,1.22-.43,1.49-.07.47-.09.84-.08,1.11.02.79.24,1.37.68,1.74.44.35,1.01.51,1.72.45.83-.05,1.61-.37,2.35-.96.79-.59,1.41-1.4,1.84-2.43v-1.19c0-1.28,0-2.38-.03-3.31v-3.76h2.6v3.74c.02.93.03,2.04.03,3.34,0,1.23,0,2.61-.01,4.16,0,1.54-.01,2.48-.01,2.82l-2.6-.03v-1.47s-.08.07-.13.11c-.05.04-.08.07-.1.09-1.18.89-2.43,1.39-3.74,1.49-1.43.1-2.62-.25-3.56-1.06-.84-.69-1.36-1.61-1.54-2.75h-.03c-.12-.86-.1-1.71.05-2.55.08-.51.27-1.15.56-1.95.03-.17.11-.36.23-.58.08-.22.13-.39.15-.51.08-.25.13-.48.13-.68,0-.22-.08-.45-.25-.68-.27-.37-.78-.81-1.54-1.31l1.41-2.17Z"/>
        <path class="cls-2" d="M68.98,9.82v2.65c.79-.56,1.69-.91,2.7-1.06-.27-.49-.4-1.05-.4-1.69l2.6.05c0,.25.09.47.28.66.22.19.5.28.83.28.32.03.57-.03.76-.2.19-.15.28-.4.28-.76h2.6c0,1.16-.4,2.08-1.21,2.75-.24.19-.47.34-.71.45,1.01,1.01,1.57,2.3,1.67,3.87h.05c0,3.22-.02,5.53-.05,6.95l-2.6-.05c.03-2.66.05-4.84.05-6.54h-.03c-.02-1.03-.34-1.82-.96-2.37-.56-.52-1.25-.8-2.1-.83-.83-.05-1.6.18-2.32.68-.72.54-1.2,1.26-1.41,2.17v6.95h-2.6v-6.97c0-1.75,0-3.35-.03-4.8v-2.17h2.6Z"/>
        <path class="cls-2" d="M73.28,2.92v1.36c0,.1,0,.21.01.32,0,.11.01.18.01.21v.76h.13c.12.02.34.03.66.03,1.4.02,3.14.02,5.23,0l.03,2.6h-3.26c-.05.02-.11.03-.18.03-.32,0-.6,0-.83.03h-1.54c-.66-.05-1.15-.16-1.47-.33-.59-.29-.99-.73-1.19-1.34-.17-.45-.23-1.01-.18-1.67,0-.19,0-.39-.03-.61v-1.36l2.6-.03Z"/>
        <path class="cls-2" d="M86.87,18.69v-4.17h-.03c-.02-.72-.29-1.29-.81-1.69-.51-.42-1.15-.63-1.95-.63-.76-.03-1.42.15-2,.56-.49.35-.75.85-.78,1.49l-2.6-.1c.05-1.48.67-2.64,1.87-3.49.99-.74,2.17-1.09,3.54-1.06,1.35,0,2.53.4,3.54,1.19,1.04.83,1.63,1.94,1.77,3.33.02.07.03.17.03.3,0,.12,0,.32.01.61,0,.29.01.56.01.81v.43c.02.67,0,1.51-.03,2.5v.08c0,1.53-.48,2.75-1.44,3.66-.89.83-1.95,1.25-3.18,1.29-1.21.03-2.27-.32-3.16-1.06-.99-.89-1.46-2.01-1.39-3.36l2.6.13c-.02.54.14.95.48,1.24.39.34.86.49,1.41.45.56,0,1.04-.19,1.44-.56.42-.42.63-1.03.63-1.82h.03s-.02-.08,0-.13Z"/>
      </g>
      <g>
        <path class="cls-3" d="M30.58,46.16c-.55,0-1.1.22-1.64.66-.42.33-.67.66-.75.98v.07h-.02v.04s-.02.02-.02.04l-.68-.07-1.18.02c-.02-1.31-.04-2.75-.04-4.32v-1.03c0-.26,0-.6,0-1.04,0-.44,0-.77,0-1v-.09c.05-.96.54-1.7,1.47-2.23.71-.4,1.57-.61,2.58-.61,1.03.02,1.89.26,2.59.7.85.53,1.31,1.25,1.4,2.17v.02s.02.1.02.2c0,.07,0,.13-.02.17,0,.56.02,1.53.06,2.89v.09c.04,1.93.05,3.31.04,4.16l-1.89-.02c.01-.82,0-2.19-.04-4.1v-.09c-.04-1.52-.06-2.58-.06-3.18-.04-.28-.21-.52-.52-.7-.43-.27-.96-.4-1.6-.4s-1.19.12-1.62.37c-.32.18-.49.41-.52.68,0,.23,0,.56,0,.99,0,.43,0,.77,0,1.03v2.58c.81-.53,1.61-.79,2.41-.79l.02,1.84Z"/>
        <path class="cls-3" d="M35.74,37.75c1.43.93,2.16,1.94,2.17,3.02.01.27-.04.63-.17,1.07-.04.14-.09.29-.17.46-.02.12-.08.27-.17.44-.17.53-.28.89-.31,1.09-.05.34-.07.61-.06.81.01.58.18,1,.5,1.27.32.26.74.37,1.25.33.6-.04,1.17-.27,1.71-.7.58-.43,1.02-1.02,1.34-1.77v-.86c0-.93,0-1.74-.02-2.41v-2.74h1.89v2.72c.01.67.02,1.48.02,2.43,0,.9,0,1.9,0,3.03,0,1.12,0,1.81,0,2.05l-1.89-.02v-1.07s-.06.05-.09.08c-.04.03-.06.05-.07.06-.86.65-1.77,1.01-2.72,1.09-1.04.07-1.91-.18-2.59-.77-.61-.5-.99-1.17-1.12-2.01h-.02c-.09-.63-.07-1.24.04-1.86.06-.37.2-.84.4-1.42.02-.12.08-.26.17-.42.06-.16.1-.28.11-.37.06-.18.09-.35.09-.5,0-.16-.06-.32-.18-.5-.2-.27-.57-.59-1.12-.96l1.03-1.58Z"/>
        <path class="cls-3" d="M44.64,44.39v-4.18c-.01-.88-.02-1.75-.02-2.59h1.89c0,.85,0,1.7.02,2.58v4.47c.07.45.29.81.64,1.07.42.31.91.45,1.47.42.59,0,1.09-.15,1.51-.46.42-.31.66-.72.74-1.23v-.04c.04-2.48.06-4.73.06-6.75h1.89c0,2.06-.02,4.38-.06,6.95h-.02v.07c-.12,1.04-.62,1.89-1.49,2.54-.75.54-1.62.81-2.61.81-.99.02-1.86-.24-2.61-.79-.85-.64-1.32-1.5-1.43-2.58,0-.13,0-.23.02-.29Z"/>
        <path class="cls-3" d="M47.79,32.23c.98-.13,1.75.01,2.3.44.59.4.88.99.88,1.75,0,.09-.01.23-.04.42.38-.01.98-.02,1.78-.02l.02,1.84c-.92,0-1.59,0-2.02.02-.22,0-.52,0-.89,0-.37,0-.63,0-.78,0-.18.04-.4.04-.64.02h-.09l-.04-1.84h.17c.16,0,.29,0,.39-.02.07-.02.12-.06.15-.09.11-.1.17-.22.17-.37,0-.1-.04-.18-.11-.26-.1-.05-.2-.08-.29-.09-.18-.04-.41-.04-.68,0l-.26-1.82Z"/>
        <path class="cls-3" d="M59.28,47.94c.01-.83.02-2.21.02-4.14v-.7c0-.39,0-.82,0-1.29,0-.47,0-.78,0-.96-.04-.32-.19-.59-.46-.83-.37-.31-.83-.47-1.4-.5-.56-.02-1.02.1-1.38.39-.37.29-.55.74-.55,1.32l-1.89.02c0-1.21.42-2.15,1.27-2.81.72-.58,1.6-.85,2.63-.81.99.04,1.84.35,2.54.94.69.58,1.07,1.28,1.14,2.1v.11c.02.15.02.29,0,.44.01.33.02.96.02,1.88v.7c0,1.93,0,3.32-.02,4.18l-1.89-.04Z"/>
        <path class="cls-3" d="M62.53,37.75c1.43.93,2.16,1.94,2.17,3.02.01.27-.04.63-.17,1.07-.04.14-.09.29-.17.46-.02.12-.08.27-.17.44-.17.53-.28.89-.31,1.09-.05.34-.07.61-.06.81.01.58.18,1,.5,1.27.32.26.74.37,1.25.33.6-.04,1.17-.27,1.71-.7.58-.43,1.02-1.02,1.34-1.77v-.86c0-.93,0-1.74-.02-2.41v-2.74h1.89v2.72c.01.67.02,1.48.02,2.43,0,.9,0,1.9,0,3.03,0,1.12,0,1.81,0,2.05l-1.89-.02v-1.07s-.06.05-.09.08c-.04.03-.06.05-.07.06-.86.65-1.77,1.01-2.72,1.09-1.04.07-1.91-.18-2.59-.77-.61-.5-.99-1.17-1.12-2.01h-.02c-.09-.63-.07-1.24.04-1.86.06-.37.2-.84.4-1.42.02-.12.08-.26.17-.42.06-.16.1-.28.11-.37.06-.18.09-.35.09-.5,0-.16-.06-.32-.18-.5-.2-.27-.57-.59-1.12-.96l1.03-1.58Z"/>
        <path class="cls-3" d="M78.17,47.87c0-.07,0-.19,0-.36,0-.17,0-.29,0-.38v-.06c-.58.42-1.23.69-1.97.83-1.07.2-1.98.05-2.74-.44-.85-.54-1.31-1.37-1.38-2.48h-.02v-.52s0-.05,0-.1c0-.06,0-.14,0-.25v-.39h-.74l.02-1.89h.42c.27,0,.57,0,.9.02h1.31v1.89h-.02c0,.17,0,.29.02.35v.64c.01.54.18.91.52,1.12.37.23.83.29,1.38.18.64-.11,1.17-.39,1.6-.85.47-.47.72-1.04.75-1.73,0-.06,0-.1.02-.13v-1.93c-.01-.53-.26-.96-.74-1.31-.52-.37-1.13-.56-1.86-.59-.74-.02-1.34.13-1.82.46-.44.29-.66.71-.64,1.23l-1.89.02c-.02-1.2.47-2.15,1.47-2.83.83-.55,1.81-.81,2.94-.77,1.13.04,2.1.36,2.92.96.98.71,1.48,1.66,1.51,2.85,0,1.34,0,2.37-.02,3.09,0,.15,0,.59-.02,1.32-.01.73-.02,1.17-.02,1.33,0,.07,0,.19,0,.35,0,.16,0,.28,0,.37l-1.89-.02Z"/>
        <path class="cls-3" d="M81.47,37.75c1.43.93,2.16,1.94,2.17,3.02.01.27-.04.63-.17,1.07-.04.14-.09.29-.17.46-.02.12-.08.27-.17.44-.17.53-.28.89-.31,1.09-.05.34-.07.61-.06.81.01.58.18,1,.5,1.27.32.26.74.37,1.25.33.6-.04,1.17-.27,1.71-.7.58-.43,1.02-1.02,1.34-1.77v-.86c0-.93,0-1.74-.02-2.41v-2.74h1.89v2.72c.01.67.02,1.48.02,2.43,0,.9,0,1.9,0,3.03,0,1.12,0,1.81,0,2.05l-1.89-.02v-1.07s-.06.05-.09.08c-.04.03-.06.05-.07.06-.86.65-1.77,1.01-2.72,1.09-1.04.07-1.91-.18-2.59-.77-.61-.5-.99-1.17-1.12-2.01h-.02c-.09-.63-.07-1.24.04-1.86.06-.37.2-.84.4-1.42.02-.12.08-.26.17-.42.06-.16.1-.28.11-.37.06-.18.09-.35.09-.5,0-.16-.06-.32-.18-.5-.2-.27-.57-.59-1.12-.96l1.03-1.58Z"/>
      </g>
      <path class="cls-4" d="M88.69,30.27h-1.48v1.66h1.48c3.94,0,7.14,3.2,7.14,7.14v4.74c0,3.94-3.2,7.14-7.14,7.14H27.4c-3.94,0-7.14-3.2-7.14-7.14v-4.74c0-3.94,3.2-7.14,7.14-7.14h1.66v-4.55h.02s6.45,4.28,6.45,4.28l.42.27h39.38l-2.5-1.66h-36.38l-6.45-4.27c-.31-.28-.67-.4-1.03-.4-.8,0-1.56.62-1.56,1.55v3.12c-4.86,0-8.8,3.94-8.8,8.8v4.74c0,4.86,3.94,8.8,8.8,8.8h61.29c4.86,0,8.8-3.94,8.8-8.8v-4.74c0-4.86-3.94-8.8-8.8-8.8Z"/>
      <path class="cls-3" d="M79.53,34.72c-1.03,0-1.93,0-2.69,0-.23,0-.39,0-.48-.02h-.09v-.55s0-.08,0-.16c0-.08,0-.16,0-.23v-.99l-1.89.02v.99c.01.16.02.31.02.44-.04.48,0,.88.13,1.21.15.44.44.77.86.97.23.12.59.2,1.07.24h1.12c.17-.01.37-.02.61-.02.05,0,.09,0,.13-.02h2.37v-1.14s-1.14-.75-1.14-.75Z"/>
    </g>
  </g>
</svg>