<?xml version="1.0" encoding="UTF-8"?>
<svg id="Layer_2" data-name="Layer 2" xmlns="http://www.w3.org/2000/svg" viewBox="0 0 49.29 62.9">
  <defs>
    <style>
      .cls-1 {
        fill: #fff;
      }

      .cls-2 {
        fill: #ff5100;
      }
    </style>
  </defs>
  <g id="Layer_1-2" data-name="Layer 1">
    <g>
      <g>
        <path class="cls-2" d="M49.29,0S27.67,8.26,16.84,21.55c-10.82,13.27-1.22,23.12-1.22,23.12C10.17,26.4,28.91,12.37,49.29,0Z"/>
        <path class="cls-2" d="M21.47,51.05S.77,30.19,45.43,9.06c0,0-34.28,21.46-23.96,41.99Z"/>
        <path class="cls-2" d="M25.03,54.37s-13.12-16.06,11.01-31.62c0,0-16.06,14.38-11.01,31.62Z"/>
        <path class="cls-2" d="M9.32,34.46s-.93-2.67-1.04-4.41c-.11-1.74-.27-3.92-1.42-5.47-1.15-1.56-2.87-2.46-5.15-2.57,0,0,2.19-2.87,4.97-2.8,2.78.08,3.67,1.12,4.59,1.53.92.42,1.74.67,1.74.67,0,0-2.03,2.18-2.86,5-.82,2.83-.95,5.06-.82,8.04Z"/>
      </g>
      <path class="cls-1" d="M6.35,56.62h-2.17l-1.5,6.15H.67l1.52-6.15H0l.38-1.53h6.35l-.38,1.53Z"/>
      <path class="cls-1" d="M11.28,62.75h-1.88l.83-3.43c.06-.27.06-.47,0-.61-.06-.14-.14-.23-.27-.27-.12-.04-.27-.04-.44.01-.17.05-.33.13-.49.25-.16.12-.31.26-.44.43-.13.17-.23.35-.27.55l-.75,3.09h-1.89l1.89-7.67h1.81l-.69,2.79c.39-.32.81-.54,1.28-.66.46-.12.88-.14,1.25-.05.37.09.66.28.86.57.21.29.25.69.12,1.2l-.94,3.82Z"/>
      <path class="cls-1" d="M18.74,60.62c-.02.09-.05.23-.1.42-.05.19-.09.38-.14.58-.05.2-.08.38-.09.56-.02.17,0,.29.04.36l.14.23h-2.01c-.08-.14-.12-.3-.11-.48-.34.26-.68.42-1.04.5-.36.08-.74.12-1.14.12-.36,0-.66-.05-.92-.14-.26-.09-.46-.22-.62-.38-.15-.17-.25-.36-.3-.57-.05-.21-.04-.45.02-.69.11-.43.34-.78.7-1.04.36-.27.77-.47,1.24-.61.47-.14.95-.23,1.45-.28.5-.05.94-.06,1.32-.05l.06-.31c.03-.12.02-.22-.04-.3-.06-.08-.14-.14-.24-.19-.1-.04-.22-.07-.34-.09-.13-.01-.24-.02-.35-.02-.64,0-1.09.27-1.34.8l-1.67-.2c.18-.37.4-.67.65-.92.25-.25.54-.44.85-.59.31-.15.64-.25,1-.3.36-.05.73-.08,1.12-.07.95.02,1.61.18,1.98.49.37.31.47.8.32,1.46l-.43,1.74ZM16.94,60.08c-.18,0-.4.01-.65.03-.25.02-.5.07-.75.14-.25.07-.47.18-.67.31-.19.13-.32.31-.37.52-.04.19.04.34.24.45.2.11.44.15.72.12.28-.03.55-.15.83-.35.28-.2.46-.52.57-.95l.08-.27Z"/>
      <path class="cls-1" d="M21.12,62.75h-1.93l1.39-5.67h1.93l-1.39,5.67ZM22.67,56.46h-1.94l.33-1.33h1.94l-.33,1.33Z"/>
      <path class="cls-1" d="M32.1,57.75c-.11.4-.28.75-.52,1.03-.24.28-.51.51-.81.68-.3.18-.62.3-.96.38-.34.08-.66.12-.97.12h-1.44l-.69,2.78h-1.71l1.89-7.6h2.59c.45,0,.86.04,1.24.13.38.09.69.23.94.44.25.2.42.47.51.8.09.33.06.75-.08,1.24ZM30.35,57.58c.08-.31.02-.53-.17-.66-.19-.13-.44-.2-.74-.2h-1.24l-.41,1.72h1.3c.31,0,.57-.07.8-.2.22-.14.38-.36.46-.67Z"/>
      <path class="cls-1" d="M38.82,57.01c-.04.42-.18.78-.43,1.07-.24.3-.56.53-.94.72.34.18.58.44.73.78.15.34.14.74-.02,1.2-.14.4-.34.73-.57.99-.24.26-.5.45-.79.6-.29.15-.59.24-.91.3-.32.05-.64.08-.95.08h-3.32l1.87-7.6h2.61c.38,0,.74.02,1.09.05.35.03.65.11.9.24.25.13.44.32.58.57.14.25.19.59.14,1.02ZM36.43,60.42c.05-.28-.01-.49-.19-.61-.18-.13-.42-.19-.72-.19h-1.42l-.4,1.66h1.4c.34,0,.63-.07.88-.2.25-.13.4-.35.46-.66ZM36.96,57.32c.05-.28,0-.47-.18-.56-.17-.09-.41-.14-.71-.14h-1.24l-.38,1.57h1.32c.29,0,.55-.06.77-.19.22-.13.36-.35.42-.68Z"/>
      <path class="cls-1" d="M43.78,57.39c-.05-.28-.15-.49-.3-.63-.15-.14-.38-.21-.7-.23-.24,0-.45.03-.64.13-.19.09-.33.2-.43.33-.1.13-.13.27-.11.41.02.14.12.27.3.36.14.07.29.12.45.16.16.03.32.07.48.12.29.07.57.16.86.26.29.1.53.24.74.41.2.18.35.4.44.69.09.28.07.63-.04,1.05-.1.4-.27.74-.51,1.04-.24.3-.53.55-.85.74-.33.2-.7.35-1.09.45-.39.1-.79.15-1.2.15-.37,0-.71-.04-1.02-.12-.31-.08-.58-.22-.8-.39-.22-.18-.39-.41-.52-.68-.12-.27-.18-.6-.18-.99l1.67-.37c.01.71.41,1.06,1.2,1.05.4,0,.73-.07,1-.19.27-.12.44-.32.52-.61.05-.21,0-.37-.18-.47-.17-.1-.4-.19-.68-.26-.28-.07-.58-.14-.9-.22-.32-.07-.61-.19-.86-.36-.25-.17-.44-.4-.57-.68-.13-.29-.13-.69,0-1.19.09-.36.25-.68.48-.96.22-.28.49-.52.78-.71.3-.19.62-.34.96-.44.34-.1.68-.15,1.01-.15.68,0,1.23.14,1.63.45.4.31.63.79.67,1.45l-1.62.41Z"/>
    </g>
  </g>
</svg>