<?xml version="1.0" encoding="UTF-8"?>
<svg id="Layer_2" data-name="Layer 2" xmlns="http://www.w3.org/2000/svg" viewBox="0 0 122.13 35.03">
  <defs>
    <style>
      .cls-1 {
        fill: #fff;
      }

      .cls-2 {
        fill: #6f7170;
      }

      .cls-3 {
        fill: #ffb200;
      }
    </style>
  </defs>
  <g id="Layer_1-2" data-name="Layer 1">
    <g>
      <g>
        <path class="cls-1" d="M31.42,18.11h0s6.26-3.64,6.26-3.64l-6.3-3.64-6.3-3.64-6.3-3.64-6.26,3.64-6.26,3.64h0S0,14.47,0,14.47l6.3,3.64,6.3,3.64,6.3,3.64,6.3,3.64,6.26-3.64-6.3-3.64,6.26-3.64ZM18.78,3.91l6.15,3.55,6.3,3.64,5.84,3.37-5.64,3.28-6.15-3.55-6.3-3.64-5.84-3.37,5.64-3.28ZM18.86,18.11h0s-6.3-3.64-6.3-3.64h0s6.26-3.64,6.26-3.64l6.3,3.64h0s-6.26,3.64-6.26,3.64Z"/>
        <polygon class="cls-3" points="18.78 0 12.52 3.64 18.82 7.28 25.08 3.64 18.78 0"/>
        <polygon class="cls-3" points="31.38 9.05 25.08 5.42 18.82 9.05 25.12 12.69 25.12 12.69 31.42 16.33 37.68 12.69 31.38 9.05"/>
        <path class="cls-1" d="M40.1,1.54h6.94l1.66,1.68v3.88l-1.68,1.69h-5.04v4.16h-1.89V1.54ZM46.19,7.2l.65-.65v-2.75l-.65-.65h-4.2v4.06h4.2Z"/>
        <path class="cls-1" d="M50.17,11.31v-6.47h1.84v5.9l.64.64h1.42l1.73-1.73v-4.81h1.84v8.12h-1.71v-1.5l-1.52,1.5h-2.59l-1.65-1.65Z"/>
        <path class="cls-1" d="M59.1,11.27V1.32h1.84v4.79l1.32-1.27h2.92l1.63,1.63v4.86l-1.63,1.63h-4.42l-1.66-1.68ZM64.28,11.37l.68-.68v-3.59l-.68-.68h-1.73l-1.61,1.61v2.66l.68.68h2.66Z"/>
        <path class="cls-3" d="M68.28,1.32h1.84v25.29h-1.84V1.32Z"/>
        <path class="cls-3" d="M71.34,3.09v-.95l.67-.65h.99l.67.65v.95l-.67.65h-.99l-.67-.65ZM71.58,4.84h1.84v21.77h-1.84V4.84Z"/>
        <path class="cls-1" d="M74.89,11.34v-4.89l1.6-1.61h4.29l1.61,1.63v1.34h-1.84v-.75l-.65-.64h-2.51l-.65.64v3.68l.65.64h2.51l.65-.64v-.75h1.84v1.34l-1.61,1.63h-4.29l-1.6-1.61Z"/>
        <path class="cls-1" d="M40.1,15.2h1.89v11.41h-1.89v-11.41Z"/>
        <path class="cls-1" d="M43.46,18.49h1.71v1.48l1.48-1.48h2.57l1.71,1.71v6.4h-1.84v-5.9l-.64-.64h-1.47l-1.69,1.71v4.82h-1.84v-8.12Z"/>
        <path class="cls-1" d="M53.6,24.99v-4.94h-1.47v-1.56h1.5v-2.64h1.81v2.64h2.49v1.56h-2.49v4.35l.64.64h1.86v1.56h-2.72l-1.61-1.61Z"/>
        <path class="cls-1" d="M59.13,24.99v-4.87l1.61-1.63h4.42l1.65,1.63v3.03h-5.83v1.3l.62.62h2.79l.59-.6v-.49h1.83v1.04l-1.58,1.58h-4.48l-1.6-1.61ZM64.97,21.79v-1.12l-.64-.65h-2.72l-.64.65v1.12h3.99Z"/>
        <path class="cls-3" d="M74.65,16.74v-.95l.67-.65h.99l.67.65v.95l-.67.65h-.99l-.67-.65ZM74.89,18.49h1.84v8.12h-1.84v-8.12Z"/>
        <path class="cls-1" d="M85.94,18.49v10.04l-1.68,1.66h-4.29l-1.42-1.42v-1.08h1.83v.54l.41.41h2.67l.64-.65v-2.54l-1.25,1.16h-3.03l-1.61-1.63v-4.86l1.61-1.63h3.16l1.24,1.21v-1.21h1.73ZM84.1,21.29l-1.3-1.22h-2.07l-.68.68v3.59l.68.68h1.92l1.45-1.42v-2.31Z"/>
        <path class="cls-1" d="M87.41,24.99v-4.87l1.61-1.63h4.42l1.65,1.63v3.03h-5.83v1.3l.62.62h2.79l.59-.6v-.49h1.83v1.04l-1.58,1.58h-4.48l-1.6-1.61ZM93.24,21.79v-1.12l-.64-.65h-2.72l-.64.65v1.12h3.99Z"/>
        <path class="cls-1" d="M96.55,18.49h1.71v1.48l1.48-1.48h2.57l1.71,1.71v6.4h-1.84v-5.9l-.64-.64h-1.47l-1.69,1.71v4.82h-1.84v-8.12Z"/>
        <path class="cls-1" d="M105.49,24.99v-4.89l1.6-1.61h4.29l1.61,1.63v1.34h-1.84v-.75l-.65-.64h-2.51l-.65.64v3.68l.65.64h2.51l.65-.64v-.75h1.84v1.34l-1.61,1.63h-4.29l-1.6-1.61Z"/>
        <path class="cls-1" d="M114.46,24.99v-4.87l1.61-1.63h4.42l1.65,1.63v3.03h-5.83v1.3l.62.62h2.79l.59-.6v-.49h1.83v1.04l-1.58,1.58h-4.48l-1.6-1.61ZM120.29,21.79v-1.12l-.64-.65h-2.72l-.64.65v1.12h3.99Z"/>
      </g>
      <g>
        <polygon class="cls-2" points="89.99 29.02 88.58 35.03 120.91 35.03 122.13 29.02 89.99 29.02 89.99 29.02"/>
        <path class="cls-1" d="M113.13,30.83c-.06-.12-.16-.21-.28-.28-.12-.06-.27-.1-.44-.12-.17-.01-.35-.02-.53-.02h-1.27l-.91,3.7h1.62c.15,0,.31-.01.46-.04.15-.03.3-.07.44-.15.14-.07.27-.17.38-.29.11-.12.2-.28.28-.48.08-.22.08-.42.01-.58h0c-.07-.17-.19-.29-.36-.38.19-.09.34-.21.46-.35.12-.14.19-.32.21-.52.02-.21,0-.37-.07-.5ZM112.04,32.99c-.03.15-.1.26-.22.32-.12.06-.26.1-.43.1h-.68l.2-.81h.69c.15,0,.26.03.35.09h0c.09.06.12.16.09.3ZM112.3,31.49c-.03.16-.1.27-.2.33-.11.06-.23.09-.37.09h-.64l.19-.76h.6c.15,0,.26.02.34.07h0c.08.04.11.14.09.27h0Z"/>
        <polygon class="cls-1" points="95.61 34.13 94.63 34.13 95.37 31.14 94.3 31.14 94.49 30.39 97.58 30.39 97.4 31.14 96.34 31.14 95.61 34.13 95.61 34.13"/>
        <path class="cls-1" d="M100.25,32.27l-.45,1.86h-.92l.4-1.67c.03-.13.03-.23,0-.3s-.07-.11-.13-.13c-.06-.02-.13-.02-.21,0-.08.02-.16.06-.24.12-.08.06-.15.13-.21.21-.07.08-.11.17-.13.27l-.37,1.5h-.92l.92-3.73h.88l-.34,1.36c.19-.16.4-.26.62-.32.23-.06.43-.07.61-.03.18.04.32.14.42.28.1.14.12.34.06.58h0Z"/>
        <path class="cls-1" d="M103.48,31.53c-.18-.15-.5-.23-.96-.24-.19,0-.37,0-.55.03-.17.03-.34.08-.49.15-.15.07-.29.17-.41.29-.12.12-.23.27-.32.45l.82.1c.12-.26.34-.39.65-.39.05,0,.11,0,.17.01.06,0,.12.02.17.04.05.02.09.05.11.09.03.04.03.09.02.15l-.03.15c-.19,0-.4,0-.64.03-.24.02-.48.07-.71.14-.23.07-.43.17-.6.3-.18.13-.29.3-.34.51-.03.12-.03.23-.01.34.02.11.07.2.15.28.07.08.17.14.3.19.13.04.28.07.45.07.2,0,.38-.02.55-.06.18-.04.35-.12.51-.24,0,.09.01.17.05.23h.98l-.07-.11s-.03-.09-.02-.17c0-.08.02-.17.05-.27.02-.09.04-.19.07-.28.02-.09.04-.16.05-.21h0,0s.21-.85.21-.85c.08-.32.03-.56-.15-.71ZM102.51,32.96c-.05.21-.14.36-.28.46-.13.1-.27.16-.4.17-.14.02-.25,0-.35-.06-.1-.05-.14-.13-.12-.22.02-.1.09-.19.18-.25.09-.06.2-.11.32-.15.12-.04.24-.06.37-.07h0c.12-.01.23-.02.32-.02h0l-.04.13Z"/>
        <polygon class="cls-1" points="104.59 34.13 103.65 34.13 104.33 31.36 105.27 31.36 104.59 34.13"/>
        <polygon class="cls-1" points="105.34 31.06 104.4 31.06 104.56 30.42 105.51 30.42 105.34 31.06"/>
        <path class="cls-1" d="M109.97,31.09c-.04-.16-.13-.29-.25-.39-.12-.1-.27-.17-.46-.21-.18-.04-.39-.06-.6-.06h-1.26l-.92,3.7h.83l.34-1.35h.7c.15,0,.31-.02.47-.06.16-.04.32-.1.46-.19h0s0,0,0,0c.15-.09.28-.2.39-.33.12-.14.2-.3.26-.5.07-.24.08-.44.04-.6ZM109.08,31.61c-.04.15-.11.26-.22.32-.11.07-.24.1-.39.1h-.63l.2-.84h.6c.15,0,.27.03.36.1h0c.09.06.12.17.08.32h0Z"/>
        <path class="cls-1" d="M115.48,31.21c-.07-.07-.19-.1-.34-.11-.12,0-.22.02-.31.06-.09.04-.16.1-.21.16-.05.06-.07.13-.06.2.01.07.06.13.15.18.07.03.14.06.22.08.08.02.16.04.23.06.14.03.28.08.42.12.14.05.26.12.36.2s.17.2.21.33c.04.14.04.31-.02.51-.05.19-.13.36-.25.51-.12.15-.26.27-.42.36-.16.1-.34.17-.53.22-.19.05-.39.07-.58.07-.18,0-.35-.02-.49-.06-.15-.04-.28-.1-.39-.19-.11-.09-.19-.2-.25-.33-.06-.13-.09-.29-.09-.48l.81-.18c0,.35.2.52.58.51.19,0,.36-.04.49-.09.13-.06.22-.16.25-.3.02-.1,0-.18-.09-.23-.08-.05-.19-.09-.33-.13s-.28-.07-.44-.11c-.16-.04-.3-.09-.42-.18-.12-.08-.22-.19-.28-.33s-.06-.33,0-.58c.04-.18.12-.33.23-.47.11-.14.24-.25.38-.35.14-.09.3-.17.47-.21.17-.05.33-.07.49-.07.33,0,.6.07.79.22s.31.39.33.71l-.79.2h0c-.02-.14-.07-.24-.15-.31h0Z"/>
      </g>
    </g>
  </g>
</svg>