<?xml version="1.0" encoding="UTF-8"?>
<svg id="Layer_2" data-name="Layer 2" xmlns="http://www.w3.org/2000/svg" viewBox="0 0 87.55 40.72">
  <defs>
    <style>
      .cls-1 {
        fill: #ec5529;
      }

      .cls-2 {
        fill: #ec5b2f;
      }

      .cls-3 {
        fill: #fff;
      }
    </style>
  </defs>
  <g id="Layer_1-2" data-name="Layer 1">
    <g>
      <circle class="cls-2" cx="52.28" cy="25.19" r="3.56"/>
      <g>
        <path class="cls-3" d="M77.25,32.01h-4.9c-3.89,0-7.06-3.17-7.06-7.06v-9.56h2.48v9.56c0,2.53,2.06,4.58,4.58,4.58h4.9v2.48Z"/>
        <path class="cls-3" d="M14.68,31.94c-4.56,0-8.28-3.71-8.28-8.28s3.71-8.28,8.28-8.28,8.28,3.71,8.28,8.28-3.71,8.28-8.28,8.28ZM14.68,17.74c-3.27,0-5.93,2.66-5.93,5.93s2.66,5.93,5.93,5.93,5.93-2.66,5.93-5.93-2.66-5.93-5.93-5.93Z"/>
        <path class="cls-3" d="M52.44,40.72l-.99-.92c-.95-.88-9.29-8.78-9.29-14.13,0-5.67,4.61-10.28,10.28-10.28s10.28,4.61,10.28,10.28c0,2.37-1.6,5.49-4.75,9.29-2.24,2.7-4.45,4.75-4.54,4.84l-.99.92ZM52.44,18.31c-4.06,0-7.36,3.3-7.36,7.36,0,2.78,4.18,7.87,7.36,11.04,3.19-3.17,7.36-8.26,7.36-11.04,0-4.06-3.3-7.36-7.36-7.36Z"/>
        <path class="cls-3" d="M33.01,31.94c-4.56,0-8.28-3.71-8.28-8.28s3.71-8.28,8.28-8.28c2.6,0,5,1.19,6.58,3.26l-1.86,1.42c-1.13-1.48-2.85-2.34-4.72-2.34-3.27,0-5.93,2.66-5.93,5.93s2.66,5.93,5.93,5.93c1.86,0,3.58-.85,4.72-2.34l1.86,1.42c-1.58,2.07-3.98,3.26-6.58,3.26Z"/>
        <path class="cls-3" d="M44.54,35.48H10.88c-4.62,0-8.38-3.76-8.38-8.39v-14.55c-.03-.31-.05-.61-.08-.92-.12-.96-.53-1.72-1.47-2.12-.29-.13-.6-.17-.93-.21h-.02v17.8c0,6,4.88,10.88,10.88,10.88h35.73s-2.07-2.5-2.07-2.5Z"/>
        <path class="cls-3" d="M86.74,16.17c-.34-.45-.83-.7-1.47-.73h-.08s0,0,0,0h-6.43c-2.97,0-5.4,2.37-5.5,5.32v.19s0,0,0,0c.1,2.95,2.53,5.32,5.5,5.32h1.77c2.51,0,4.55,2.17,4.55,4.68s-2.04,4.55-4.55,4.55h-20.2s-2.09,2.49-2.09,2.49l22.29-.03c3.87,0,7.01-3.15,7.01-7.01s-3.15-7.15-7.01-7.15h-1.77c-1.65,0-2.99-1.31-3.04-2.95.05-1.64,1.4-2.95,3.04-2.95h8.39v-.09s0-.04,0-.06c-.03-.47-.07-1.12-.41-1.58Z"/>
      </g>
      <g>
        <polygon class="cls-1" points="84.34 12.76 28.91 12.76 31.99 0 87.42 0 84.34 12.76"/>
        <g>
          <path class="cls-3" d="M41.55,4.32h-2.25l-1.55,6.35h-2.07l1.57-6.35h-2.26l.4-1.58h6.57l-.4,1.58Z"/>
          <path class="cls-3" d="M46.64,10.66h-1.95l.86-3.55c.06-.27.06-.49,0-.63-.06-.15-.15-.24-.28-.28-.13-.04-.28-.04-.45.01-.17.05-.34.14-.51.25-.17.12-.32.27-.45.44-.14.17-.23.36-.28.56l-.78,3.19h-1.95l1.95-7.92h1.87l-.71,2.89c.4-.33.84-.56,1.32-.69.48-.13.91-.15,1.3-.06.38.09.68.29.89.59.21.3.25.72.13,1.24l-.97,3.95Z"/>
          <path class="cls-3" d="M54.36,8.46c-.02.09-.06.24-.11.43-.05.19-.1.39-.15.6-.05.2-.08.39-.1.57-.02.18,0,.3.04.37l.15.24h-2.07c-.09-.14-.13-.31-.11-.5-.35.26-.71.44-1.08.52-.37.08-.76.12-1.18.12-.37,0-.69-.05-.95-.14-.27-.1-.48-.23-.64-.4-.16-.17-.26-.37-.31-.59-.05-.22-.04-.46.02-.72.11-.44.35-.81.72-1.08.37-.27.8-.48,1.28-.63.49-.14.99-.24,1.5-.29.52-.05.97-.07,1.37-.06l.06-.33c.03-.12.02-.23-.04-.31-.06-.08-.14-.14-.24-.19-.1-.05-.22-.08-.35-.09-.13-.02-.25-.02-.36-.02-.67,0-1.13.28-1.39.82l-1.73-.21c.18-.38.41-.7.67-.95.26-.26.55-.46.87-.61.32-.15.67-.26,1.04-.31.37-.06.76-.08,1.16-.07.98.02,1.66.19,2.04.51.38.32.49.82.33,1.5l-.44,1.8ZM52.5,7.9c-.19,0-.41.01-.67.04-.26.02-.52.07-.77.15-.26.08-.49.18-.69.32-.2.14-.33.32-.38.53-.04.2.04.35.25.47.21.11.45.15.74.12.29-.03.57-.15.86-.36.28-.21.48-.53.59-.98l.08-.28Z"/>
          <path class="cls-3" d="M56.82,10.66h-1.99l1.44-5.86h1.99l-1.44,5.86ZM58.42,4.16h-2.01l.34-1.38h2.01l-.35,1.38Z"/>
          <path class="cls-3" d="M68.17,5.49c-.11.42-.29.77-.54,1.06-.24.29-.52.52-.83.71-.31.18-.64.31-.99.4-.35.08-.68.12-1,.12h-1.48l-.71,2.87h-1.77l1.95-7.86h2.68c.46,0,.89.05,1.28.14.39.09.71.24.97.45.26.21.43.48.52.83.09.34.07.77-.08,1.28ZM66.36,5.31c.08-.32.02-.54-.17-.68-.2-.14-.45-.2-.76-.2h-1.28l-.43,1.78h1.35c.32,0,.59-.07.83-.21.23-.14.39-.37.47-.69Z"/>
          <path class="cls-3" d="M75.11,4.72c-.04.43-.19.81-.44,1.11-.25.31-.58.55-.97.74.35.18.6.45.76.8.16.35.15.77-.02,1.24-.15.42-.35.76-.59,1.02-.24.26-.51.47-.81.62-.3.15-.61.25-.94.31-.33.05-.66.08-.98.08h-3.43l1.94-7.86h2.7c.39,0,.77.02,1.13.05.36.03.67.11.93.25.26.13.46.33.6.59.14.26.19.61.15,1.05ZM72.65,8.25c.05-.29-.01-.5-.2-.64-.19-.13-.43-.2-.74-.2h-1.47l-.41,1.72h1.44c.35,0,.65-.07.91-.21.26-.13.42-.36.47-.68ZM73.2,5.05c.06-.29,0-.48-.18-.58-.18-.1-.42-.14-.73-.14h-1.28l-.4,1.62h1.36c.3,0,.57-.07.8-.2.23-.13.38-.37.43-.7Z"/>
          <path class="cls-3" d="M80.25,5.12c-.05-.29-.16-.5-.31-.65-.15-.14-.39-.22-.72-.24-.25-.01-.47.03-.66.13-.19.1-.34.21-.44.35-.1.14-.14.28-.12.43.02.15.13.28.31.38.14.07.3.13.47.16.17.04.33.08.49.12.3.07.59.16.89.27.3.1.55.25.76.43.21.18.36.42.45.71.09.29.08.65-.04,1.09-.11.41-.28.77-.53,1.08-.25.31-.54.56-.88.77-.34.2-.72.36-1.13.46-.41.1-.82.16-1.24.16-.38,0-.73-.04-1.05-.13-.32-.09-.59-.22-.82-.41-.23-.19-.41-.42-.53-.7-.13-.28-.19-.62-.18-1.02l1.73-.38c.01.74.42,1.1,1.24,1.09.41-.01.76-.08,1.04-.2.28-.12.46-.33.53-.63.05-.22,0-.38-.19-.49-.18-.11-.41-.2-.7-.27-.29-.07-.6-.15-.93-.23-.33-.08-.63-.2-.89-.37-.26-.17-.46-.41-.59-.71-.13-.3-.13-.71,0-1.23.09-.37.26-.7.49-.99.23-.29.5-.53.81-.74.31-.2.64-.35.99-.46.35-.1.7-.16,1.05-.16.71,0,1.27.15,1.69.46.41.32.65.82.7,1.5l-1.67.42Z"/>
        </g>
      </g>
    </g>
  </g>
</svg>