<?xml version="1.0" encoding="UTF-8"?>
<svg id="Layer_2" data-name="Layer 2" xmlns="http://www.w3.org/2000/svg" viewBox="0 0 834.65 279.92">
  <defs>
    <style>
      .cls-1 {
        fill: #fff;
        stroke-width: 0px;
      }
    </style>
  </defs>
  <g id="Layer_1-2" data-name="Layer 1">
    <g>
      <path class="cls-1" d="M0,2.21h67.31l16.12,16.27v37.6l-16.27,16.43H18.33v40.29H0V2.21ZM59.09,57.04l6.32-6.32v-26.7l-6.32-6.32H18.33v39.34h40.76Z"/>
      <path class="cls-1" d="M97.64,96.85v-62.72h17.85v57.19l6.16,6.16h13.75l16.75-16.75v-46.61h17.85v78.68h-16.59v-14.53l-14.69,14.53h-25.12l-15.96-15.96Z"/>
      <path class="cls-1" d="M190.55,96.54V0h17.85v46.45l12.8-12.32h28.28l15.8,15.8v47.08l-15.8,15.8h-42.82l-16.12-16.27ZM240.79,97.49l6.64-6.64v-34.76l-6.64-6.64h-16.75l-15.64,15.64v25.75l6.64,6.64h25.75Z"/>
      <path class="cls-1" d="M282.97,0h17.85v245.16h-17.85V0Z"/>
      <path class="cls-1" d="M317.1,17.22v-9.16l6.48-6.32h9.64l6.48,6.32v9.16l-6.48,6.32h-9.64l-6.48-6.32ZM319.47,34.13h17.85v211.03h-17.85V34.13Z"/>
      <path class="cls-1" d="M357.86,97.17v-47.4l15.48-15.64h41.55l15.64,15.8v12.96h-17.85v-7.27l-6.32-6.16h-24.33l-6.32,6.16v35.71l6.32,6.16h24.33l6.32-6.16v-7.27h17.85v12.96l-15.64,15.8h-41.55l-15.48-15.64Z"/>
      <path class="cls-1" d="M.79,134.56h18.33v110.6H.79v-110.6Z"/>
      <path class="cls-1" d="M41.24,166.47h16.59v14.38l14.38-14.38h24.96l16.59,16.59v62.09h-17.85v-57.19l-6.16-6.16h-14.22l-16.43,16.59v46.77h-17.85v-78.68Z"/>
      <path class="cls-1" d="M139.04,229.52v-47.87h-14.22v-15.17h14.54v-25.6h17.54v25.6h24.17v15.17h-24.17v42.19l6.16,6.16h18.01v15.17h-26.39l-15.64-15.64Z"/>
      <path class="cls-1" d="M192.13,229.52v-47.24l15.64-15.8h42.82l15.96,15.8v29.39h-56.56v12.64l6,6h27.02l5.69-5.85v-4.74h17.7v10.11l-15.33,15.33h-43.45l-15.48-15.64ZM248.69,198.55v-10.9l-6.16-6.32h-26.39l-6.16,6.32v10.9h38.71Z"/>
      <path class="cls-1" d="M357.86,149.57v-9.16l6.48-6.32h9.64l6.48,6.32v9.16l-6.48,6.32h-9.64l-6.48-6.32ZM360.23,166.47h17.85v78.68h-17.85v-78.68Z"/>
      <path class="cls-1" d="M471.1,166.47v97.33l-16.27,16.12h-41.55l-13.75-13.75v-10.43h17.7v5.21l3.95,3.95h25.91l6.16-6.32v-24.65l-12.17,11.22h-29.39l-15.64-15.8v-47.08l15.64-15.8h30.65l12.01,11.69v-11.69h16.75ZM453.24,193.65l-12.64-11.85h-20.07l-6.64,6.64v34.76l6.64,6.64h18.64l14.06-13.74v-22.44Z"/>
      <path class="cls-1" d="M490.06,229.52v-47.24l15.64-15.8h42.82l15.96,15.8v29.39h-56.56v12.64l6,6h27.02l5.69-5.85v-4.74h17.7v10.11l-15.33,15.33h-43.45l-15.48-15.64ZM546.62,198.55v-10.9l-6.16-6.32h-26.39l-6.16,6.32v10.9h38.71Z"/>
      <path class="cls-1" d="M582.64,166.47h16.59v14.38l14.38-14.38h24.96l16.59,16.59v62.09h-17.85v-57.19l-6.16-6.16h-14.22l-16.43,16.59v46.77h-17.85v-78.68Z"/>
      <path class="cls-1" d="M673.33,229.52v-47.4l15.48-15.64h41.55l15.64,15.8v12.96h-17.85v-7.27l-6.32-6.16h-24.33l-6.32,6.16v35.71l6.32,6.16h24.33l6.32-6.16v-7.27h17.85v12.96l-15.64,15.8h-41.55l-15.48-15.64Z"/>
      <path class="cls-1" d="M760.23,229.52v-47.24l15.64-15.8h42.82l15.96,15.8v29.39h-56.56v12.64l6,6h27.02l5.69-5.85v-4.74h17.7v10.11l-15.32,15.33h-43.45l-15.48-15.64ZM816.79,198.55v-10.9l-6.16-6.32h-26.39l-6.16,6.32v10.9h38.71Z"/>
    </g>
  </g>
</svg>