<?xml version="1.0" encoding="UTF-8"?>
<svg id="Layer_2" data-name="Layer 2" xmlns="http://www.w3.org/2000/svg" viewBox="0 0 657.6 335.02">
  <defs>
    <style>
      .cls-1 {
        fill: #fff;
      }
    </style>
  </defs>
  <g id="Layer_1-2" data-name="Layer 1">
    <g>
      <g>
        <path class="cls-1" d="M44.82,253.39l13.6-86.65,17.26-1.48-13.01,82.87c-.92,5.85.77,8.5,4.84,8.15l3.88-.33-1.81,11.52c-3.28,1.4-6.86,2.27-10.93,2.61-11.63,1-15.81-4.05-13.83-16.7Z"/>
        <path class="cls-1" d="M79.57,248.92l2.07-13.21c2.93-18.69,20.16-28.55,43.81-32.99l2.87-18.31c1.27-8.12-1.56-11.97-8.55-11.37-6.98.6-11.12,5.05-12.39,13.17l-1.57,10-16.67,1.43,1.27-8.12c2.9-18.5,13.24-28.32,31.66-29.9,18.42-1.58,25.91,6.72,23.01,25.22l-12.23,77.96-17.06,1.46,7.88-50.21c-15.26,3.36-23.32,9.63-24.89,19.64l-1.63,10.38c-1.07,6.8.98,9.6,6.6,9.12l4.46-.38-1.81,11.52c-3.86,1.45-8.02,2.36-12.09,2.71-12.21,1.05-16.95-4.14-14.75-18.11Z"/>
        <path class="cls-1" d="M154.33,125.93l-3.61,23.03-55.45,4.75,1.81-11.52,23.65-2.03,1.81-11.52,12.02-1.03-1.81,11.52,7.75-.66,1.81-11.52,12.02-1.03Z"/>
        <path class="cls-1" d="M152.18,234.69l4.47-28.5,28.11-2.41-2.01,12.84-11.24.96-2.78,17.74c-1.36,8.68,1.44,12.73,8.81,12.1,7.75-.66,12.12-5.32,13.48-14l8.53-54.37c1.33-8.5-1.67-12.52-9.04-11.89-7.37.63-11.73,5.29-13.06,13.78l-1.6,10.19-17.06,1.46,1.3-8.31c2.99-19.07,13.75-29.11,32.56-30.72,19.19-1.64,27.05,6.81,24.06,25.88l-7.91,50.4c-3.02,19.26-13.78,29.3-33.17,30.96-18.81,1.61-26.47-6.86-23.44-26.12Z"/>
        <path class="cls-1" d="M295.72,230.41l10.69-68.15c1.84-11.7,7.69-18.54,16.61-19.3,4.07-.35,6.55.93,8.27,3.39l4.87,7.96.58-.05,7.34-9.01c2.55-2.83,5.69-4.58,9.76-4.93,8.72-.75,12.76,5.24,10.92,16.94l-13.63,86.84-17.25,1.48,13.48-85.89c.44-2.83-.09-4.28-1.78-4.5l-10.05,11.66-2.13.18-6.81-10.22c-1.61.51-2.62,2.09-3.07,4.92l-10.07,64.18c-1.07,6.8.82,9.43,6.44,8.95l4.65-.4-1.78,11.33c-4.06,1.47-8.02,2.36-12.29,2.73-12.21,1.05-16.95-4.14-14.75-18.11Z"/>
        <path class="cls-1" d="M378.88,139.29l17.25-1.48-2.75,89.45c9.69-.83,15.62-6.93,17.4-18.25l7.97-50.78c1.1-6.98-.89-10.17-6.12-9.72l-3.88.33,1.81-11.52c3.08-1.38,6.67-2.25,10.74-2.6,12.79-1.1,17.5,4.28,15.31,18.24l-8.27,52.67c-3.41,21.71-15.73,33.19-37.83,35.09l-14.35,1.23,2.72-102.66Z"/>
      </g>
      <g>
        <path class="cls-1" d="M332.19,255.65l-31,2.72-30.17,27.91,15.77-100.78h-.08s1.65-10.52,1.65-10.52c3.17-20.2-4.79-29.2-24.56-27.51-19.58,1.68-30.43,12.29-33.6,32.49l-1.98,12.65,13.76-1.18c-9.02,5.06-13.86,12.73-15.54,23.49l-6.34,40.4,17.25-1.48,7.11-45.31c1.3-8.31,4.85-13.82,13.58-15.88l1.98-12.65-13.96,1.2.77-4.91c1.48-9.44,6.29-14.51,14.44-15.21,8.34-.71,11.67,3.66,10.19,13.1l-2.01,12.83h-.09s-7.78,50.16-7.78,50.16l-2.32,14.79h.03s-12.89,83.05-12.89,83.05l85.79-79.37Z"/>
        <g>
          <path class="cls-1" d="M321.36,39.94l-2.93.26.75-3.47,4.05-.35,2.83-5.44-3.98.35.83-3.51,5.06-.44,3.43-6.56,4.52-.39-3.43,6.56,5.75-.5,3.43-6.56,4.52-.39-3.43,6.56,2.82-.25-.83,3.51-3.9.34-2.83,5.44,3.82-.33-.75,3.46-4.94.43-3.47,6.61-4.48.39,3.43-6.6-5.75.5-3.47,6.61-4.48.39,3.43-6.6ZM333.5,35.48l2.83-5.44-5.75.5-2.83,5.44,5.75-.5Z"/>
          <path class="cls-1" d="M348.83,43.19c-.61-.39-.91-1.07-.89-2.04,0-.36.08-.86.22-1.51l3.79-16.68,5.21-.45-3.46,15.32c-.08.34-.13.61-.13.81,0,.28.08.48.26.59.18.11.5.15.96.11l1.43-.12-.92,4.09-3.55.31c-1.34.12-2.31-.02-2.92-.41Z"/>
          <path class="cls-1" d="M363.18,41.77c-1.13-.72-1.68-1.89-1.66-3.52,0-.43.08-.98.22-1.62.47-2.18,1.47-3.87,3-5.07,1.52-1.2,3.75-1.93,6.69-2.19l5.91-.51.25-1.01c.14-.57.21-1.02.22-1.36.01-.79-.3-1.32-.94-1.58-.64-.26-1.77-.32-3.39-.18-2.39.21-4.78.76-7.16,1.65l.92-3.94c1.16-.46,2.47-.86,3.91-1.2,1.44-.34,2.81-.57,4.1-.68,1.16-.1,2.28-.07,3.35.09l7.53-.66-1.19,4.04-2.43.21c.27.59.4,1.26.39,2.03,0,.46-.08,1.01-.22,1.66l-3,13.25-5.21.45,2-8.92-5.6.49c-1.18.1-2.12.39-2.81.85-.69.47-1.14,1.18-1.37,2.14-.08.34-.13.65-.13.93,0,.59.22.97.69,1.16.47.19,1.29.23,2.45.13,1.26-.11,2.2-.29,2.82-.55l-.87,3.86c-1.22.46-2.61.76-4.18.9-1.72.15-3.15-.13-4.28-.85Z"/>
          <path class="cls-1" d="M372.41,14.83l12.36-1.08.67-3.15,4.25-.37-1.54,6.74-16.84,1.46,1.1-3.61Z"/>
          <path class="cls-1" d="M391.85,39.23c-1.61-.7-2.4-1.97-2.36-3.81,0-.48.07-.95.18-1.39.22-.96.64-1.86,1.26-2.69.62-.83,1.42-1.53,2.41-2.1-.54-.23-.96-.6-1.27-1.09-.31-.49-.46-1.1-.45-1.81,0-.36.05-.73.13-1.12.47-2.03,1.43-3.63,2.88-4.8,1.45-1.17,3.26-1.85,5.45-2.04,1.44-.13,2.6-.05,3.47.23l-.87,3.86c-.69-.14-1.55-.17-2.58-.08-.98.09-1.74.32-2.29.7-.55.38-.92.95-1.11,1.7-.06.31-.09.52-.09.62,0,.59.22.98.67,1.18.46.2,1.18.26,2.16.18l2.16-.19-.68,3.84-2.39.21c-2.19.19-3.49,1.18-3.91,2.98-.06.31-.09.52-.09.62-.01.69.31,1.17.98,1.44.66.27,1.78.34,3.35.21,1.72-.15,3.05-.6,3.98-1.36.92-.76,1.54-1.81,1.85-3.16l3-13.25,5.21-.45-2.88,12.78c-.72,3.04-2.01,5.31-3.87,6.81-1.86,1.5-4.53,2.4-8.01,2.7-2.58.22-4.67-.02-6.27-.72Z"/>
          <path class="cls-1" d="M420.34,37.86c-.76-.04-1.39-.12-1.9-.25l-2.62-13.91,5.06-.44,2.05,10.86c1.9-.17,3.44-.93,4.61-2.29,1.17-1.36,2.06-3.37,2.67-6.02.28-1.2.42-2.23.44-3.09.02-1.1-.25-1.84-.81-2.22-.56-.38-1.53-.52-2.92-.4l-1.58.14.84-3.74,2.32-.2c4.81-.42,7.18,1.5,7.11,5.76-.02,1.02-.16,2.13-.44,3.33-.92,4-2.43,7-4.53,9.01-2.1,2-4.79,3.15-8.06,3.43-.72.06-1.46.08-2.22.04Z"/>
          <path class="cls-1" d="M441.16,34.48c-1.34-1.03-2-2.49-1.97-4.38,0-.51.08-1.09.22-1.74l.29-1.32c.19-.94.56-1.78,1.1-2.52.54-.75,1.24-1.58,2.1-2.49.55-.61.95-1.08,1.2-1.4.25-.33.42-.65.5-.96.03-.08.04-.19.04-.35,0-.23-.07-.38-.22-.46-.15-.08-.44-.1-.85-.06l-2.51.22,1.3-3.93,5.41-.47c1.8-.16,2.69.45,2.67,1.83,0,.28-.05.58-.13.89-.17.78-.47,1.51-.91,2.18-.44.68-1.03,1.48-1.8,2.41-.73.9-1.32,1.7-1.76,2.39-.44.69-.75,1.43-.94,2.24l-.38,1.68c-.11.44-.17.88-.18,1.31-.01.84.25,1.42.8,1.74.55.32,1.45.43,2.71.32,2.83-.25,4.54-1.67,5.12-4.27l3.04-13.44,5.21-.45-3,13.21c-.61,2.7-1.84,4.82-3.69,6.34-1.85,1.52-4.4,2.43-7.64,2.71-2.5.22-4.42-.19-5.76-1.22Z"/>
          <path class="cls-1" d="M466.64,33.53c-1.47-.18-2.7-.45-3.67-.83l2.54-11.07,8.84-.77-.64,3.84-4.13.36-1,4.25c.46.11,1.02.19,1.69.22.67.03,1.31.02,1.93-.03,1.88-.16,3.41-.81,4.6-1.95,1.19-1.13,2.06-2.9,2.61-5.29.3-1.3.46-2.36.48-3.17.02-1.35-.41-2.26-1.28-2.72-.88-.46-2.43-.59-4.64-.4-2.47.22-4.91.77-7.32,1.67l.92-3.94c1.22-.49,2.59-.9,4.13-1.24,1.53-.34,3.02-.57,4.46-.69,2.91-.25,5.09.18,6.53,1.3,1.45,1.12,2.15,2.91,2.11,5.36-.02,1.07-.17,2.21-.44,3.4-.56,2.47-1.32,4.51-2.3,6.12-.98,1.61-2.34,2.9-4.09,3.85-1.75.96-4,1.55-6.76,1.79-1.57.14-3.09.12-4.57-.06Z"/>
          <path class="cls-1" d="M493.28,31.52c-.76-.04-1.39-.12-1.9-.25l-2.62-13.91,5.06-.44,2.05,10.86c1.9-.17,3.44-.93,4.61-2.29,1.17-1.36,2.06-3.37,2.67-6.02.28-1.2.42-2.23.44-3.09.02-1.1-.25-1.84-.81-2.22-.56-.39-1.53-.52-2.92-.4l-1.58.14.83-3.74,2.32-.2c4.81-.42,7.18,1.5,7.11,5.76-.02,1.02-.16,2.13-.44,3.33-.92,4-2.43,7.01-4.53,9.01-2.1,2-4.79,3.15-8.06,3.43-.72.06-1.46.08-2.22.04Z"/>
          <path class="cls-1" d="M515.81,8.7l4.79-.42-.23,2.05c1.17-.89,2.37-1.6,3.6-2.11,1.23-.52,2.62-.84,4.16-.97,1.78-.15,3.16.22,4.14,1.11.99.9,1.47,2.17,1.44,3.83-.01.61-.1,1.3-.27,2.05l-3.13,13.84-5.21.45,3.04-13.52c.14-.52.21-1.06.22-1.62.01-.77-.19-1.29-.61-1.59-.42-.29-1.13-.4-2.13-.31-1.06.09-2.13.39-3.23.89-1.1.5-2,1.09-2.71,1.76l-3.42,15.16-5.21.45,4.75-21.05Z"/>
          <path class="cls-1" d="M527.03,33.59l-2.32.2.98-3.37,6.53-.57-1.79,7.87-4.4.38,1-4.52Z"/>
          <path class="cls-1" d="M540.9,20.57c.31-1.33.77-2.44,1.41-3.35s1.54-1.58,2.73-2.01l-3.69-.71,1.13-5.03c1.43-1.12,3.11-2.09,5.02-2.92,1.92-.83,3.93-1.33,6.04-1.52,2.75-.24,4.84.06,6.25.91,1.41.85,2.1,2.31,2.07,4.4-.01.72-.13,1.57-.35,2.55l-2.88,12.71-5.21.45,2.88-12.82c.17-.68.25-1.26.26-1.74.02-.97-.3-1.64-.95-2-.65-.36-1.73-.48-3.25-.35-1.11.1-2.19.36-3.25.78-1.06.42-1.96.92-2.69,1.5l-.13.54,4.03.8-.71,3.19c-1.06.35-1.84.83-2.34,1.45-.5.61-.89,1.53-1.16,2.76l-1.5,6.66-5.21.45,1.5-6.7Z"/>
          <path class="cls-1" d="M568.31,11.96c.67-2.89,1.9-5.07,3.72-6.55,1.81-1.48,4.48-2.38,8.01-2.68,2.63-.23,4.65.17,6.07,1.19,1.42,1.02,2.12,2.5,2.08,4.44-.01.71-.09,1.35-.22,1.89l-2.96,13.06-5.21.45,3.04-13.45c.11-.44.17-.89.18-1.35.02-.89-.28-1.5-.87-1.83-.6-.33-1.61-.43-3.02-.31-1.7.15-2.96.56-3.8,1.23-.83.67-1.4,1.7-1.71,3.07l-.87,3.78c1.27-.93,2.58-1.45,3.92-1.56l2.51-.22-.8,4.16-2.78.24c-1.37.12-2.62.6-3.76,1.43l-1.25,5.61-5.21.45,2.96-13.06Z"/>
          <path class="cls-1" d="M594.69,21.36c-1.05-.9-1.56-2.23-1.53-3.99.01-.61.1-1.28.27-2.01l3.09-13.68,5.21-.45-3.04,13.37c-.14.65-.21,1.16-.22,1.55-.01.87.23,1.46.72,1.77.5.31,1.29.42,2.37.33.95-.08,1.94-.37,2.96-.87,1.02-.5,1.9-1.08,2.63-1.76l3.42-15.16,5.21-.45-4.75,21.04-4.79.42.23-2.05c-2.4,1.81-4.93,2.84-7.61,3.07-1.72.15-3.11-.23-4.16-1.13Z"/>
        </g>
        <g>
          <path class="cls-1" d="M317.16,66.69c.28-1.22.81-2.22,1.59-3,.78-.78,1.77-1.22,2.95-1.33l4.67-.4-.65,3.88-1.97.17c-1.06.09-1.74.72-2.04,1.9l-1.92,8.46,6.12-8.06,1.93-.17,2.61,7.3,4.63-20.34,4.9-.43-6.18,27.28-4.79.42-3.08-9.05-7.38,9.96-5.25.46,3.84-17.03Z"/>
          <path class="cls-1" d="M329.55,52.55l5.21-.45-1.46,6.43-5.21.45,1.46-6.43Z"/>
          <path class="cls-1" d="M352.96,67.6c.2-.91.3-1.57.3-1.97.01-.84-.23-1.43-.74-1.75s-1.38-.43-2.62-.33c-.82.07-1.73.24-2.73.5-.99.26-1.91.59-2.74.96l.88-3.86c.86-.43,1.88-.81,3.07-1.14,1.19-.33,2.34-.55,3.44-.64,2.24-.19,3.94.13,5.09.97,1.16.84,1.72,2.14,1.69,3.9-.01.66-.1,1.38-.27,2.16l-3.09,13.68-5.21.45,2.92-12.94Z"/>
          <path class="cls-1" d="M360.79,78.77l.92-4.01c1.58.63,3.3.86,5.15.7,2.42-.21,4.26-.87,5.53-1.99,1.27-1.12,2.19-2.92,2.77-5.42.28-1.3.43-2.28.44-2.94.02-1.38-.39-2.31-1.24-2.81-.85-.5-2.32-.66-4.41-.48-1.83.16-3.71.7-5.66,1.64l.92-4.02c2.1-1,4.4-1.6,6.89-1.82,2.73-.24,4.82.24,6.28,1.44,1.46,1.2,2.17,3.01,2.12,5.43-.02.94-.15,1.99-.4,3.13-.84,3.72-2.25,6.53-4.25,8.45-2,1.92-4.9,3.04-8.71,3.37-2.47.21-4.59-.01-6.35-.67Z"/>
          <path class="cls-1" d="M368.39,51.98l16.57-1.44-.83,3.59-16.84,1.46,1.1-3.61Z"/>
          <path class="cls-1" d="M386.91,70.77c.31-1.33.78-2.44,1.41-3.35.63-.91,1.54-1.58,2.73-2.01l-3.69-.71,1.13-5.02c1.43-1.12,3.11-2.09,5.02-2.92,1.92-.83,3.93-1.33,6.04-1.52,2.75-.24,4.84.06,6.25.91,1.41.85,2.1,2.31,2.06,4.41-.01.72-.13,1.56-.35,2.55l-2.88,12.7-5.21.45,2.88-12.82c.17-.68.25-1.26.26-1.74.02-.97-.3-1.64-.95-2-.65-.36-1.73-.48-3.25-.35-1.11.1-2.19.36-3.25.78-1.06.42-1.96.92-2.69,1.49l-.12.54,4.03.8-.71,3.19c-1.06.35-1.84.83-2.34,1.45-.5.62-.89,1.54-1.17,2.76l-1.5,6.66-5.21.45,1.5-6.7Z"/>
          <path class="cls-1" d="M428.45,61.17c.17-.7.25-1.32.26-1.86.02-.92-.3-1.55-.93-1.91-.64-.35-1.73-.46-3.27-.33-1.11.1-2.19.36-3.25.78-1.06.42-1.96.92-2.69,1.49l-.13.54,4.03.8-.71,3.19c-1.06.35-1.84.83-2.34,1.45-.5.62-.89,1.54-1.16,2.76l-.25,1.13c-.05.18-.08.4-.09.66,0,.28.07.47.24.57.16.1.45.13.87.1l2.12-.18-.92,4.09-4.71.41c-1,.09-1.79-.12-2.36-.64s-.85-1.23-.83-2.14c0-.33.05-.67.13-1l.58-2.57c.31-1.33.78-2.44,1.41-3.35.63-.91,1.54-1.58,2.73-2.01l-3.69-.71,1.13-5.02c1.43-1.12,3.11-2.09,5.02-2.92,1.92-.83,3.93-1.33,6.04-1.52,2.68-.23,4.73.09,6.17.97,1.44.88,2.14,2.37,2.1,4.46-.01.79-.12,1.6-.31,2.43l-4.34,18.94-5.21.45,4.34-19.06Z"/>
          <path class="cls-1" d="M439.28,71.46c-1.23-1.04-1.82-2.72-1.78-5.04.02-1.07.17-2.21.44-3.4,1.7-7.56,4.95-11.55,9.77-11.96,1.03-.09,1.8,0,2.33.29.52.29.95.73,1.27,1.34.68-.67,1.49-1.22,2.42-1.64s1.95-.68,3.06-.78c1.39-.12,2.45.14,3.17.78.72.64,1.07,1.61,1.05,2.91-.01.59-.1,1.23-.26,1.93l-3.47,15.35-5.21.45,3.3-14.54c.14-.6.21-1.06.22-1.39,0-.46-.1-.79-.31-1-.21-.21-.57-.29-1.06-.25-.49.04-.95.23-1.38.56s-.79.8-1.08,1.41l-2.51.22c-.14-.62-.32-1.06-.54-1.31s-.58-.35-1.09-.31c-1.11.1-2.04.79-2.79,2.1-.76,1.3-1.4,3.11-1.93,5.42-.3,1.3-.46,2.33-.48,3.1-.02,1.17.26,1.98.85,2.41.58.43,1.54.59,2.88.48,1.18-.1,2.09-.28,2.71-.54l-.88,3.86c-1.04.45-2.28.73-3.72.86-2.09.18-3.74-.25-4.97-1.29Z"/>
          <path class="cls-1" d="M467.77,68.96c-1.43-1.05-2.13-2.62-2.1-4.71.01-.64.1-1.32.27-2.05l2.84-12.59,5.21-.45-2.88,12.67c-.17.7-.25,1.31-.26,1.82-.02,1,.28,1.68.89,2.06.61.38,1.62.51,3.04.39,1.62-.14,2.9-.62,3.82-1.44.93-.82,1.57-2.03,1.93-3.64l4.3-18.9,5.21-.45-4.26,18.82c-1.34,5.9-5.32,9.13-11.97,9.71-2.6.23-4.62-.19-6.05-1.23Z"/>
          <path class="cls-1" d="M493.44,68.18c-1.28-.09-2.28-.27-3-.54l.96-4.25c.84.31,1.83.53,2.96.66,1.13.13,2.18.16,3.16.07,1.75-.15,3.01-.39,3.79-.73.78-.33,1.26-.89,1.46-1.67.03-.1.04-.26.05-.46,0-.54-.23-.94-.71-1.2-.48-.26-1.38-.56-2.68-.88l-1.5-.41c-1.66-.47-2.89-1.02-3.67-1.65-.79-.63-1.17-1.51-1.15-2.63,0-.2.06-.62.18-1.24.47-1.98,1.53-3.58,3.19-4.8,1.65-1.23,3.96-1.97,6.92-2.22,1.18-.1,2.36-.12,3.53-.04,1.17.08,2.12.21,2.87.4l-.96,4.21c-.74-.27-1.63-.44-2.67-.53-1.04-.09-2.02-.09-2.95-.01-1.39.12-2.52.36-3.39.73s-1.38.94-1.55,1.72c-.03.08-.04.19-.04.35,0,.46.24.81.73,1.04.5.24,1.35.51,2.55.81.44.09.99.23,1.65.43,1.71.49,2.94,1.05,3.69,1.69.75.64,1.11,1.52,1.09,2.64,0,.43-.08.98-.22,1.62-.47,2.05-1.53,3.64-3.19,4.76-1.65,1.12-3.98,1.82-6.99,2.08-1.44.13-2.8.14-4.09.05Z"/>
          <path class="cls-1" d="M513.16,58.68l4.4-.38-.42,1.91,5.37-.47-1.03,3.87-9.61.83,1.29-5.77ZM515.53,48.24l4.4-.38-.42,1.91,5.37-.47-1.03,3.87-9.61.83,1.29-5.77Z"/>
          <path class="cls-1" d="M528.52,64.4c-.61-.39-.91-1.07-.89-2.04,0-.36.08-.86.22-1.51l3.8-16.68,5.21-.45-3.46,15.32c-.08.34-.13.61-.13.81,0,.28.08.48.26.59.18.11.5.15.96.11l1.43-.12-.92,4.09-3.55.31c-1.34.12-2.31-.02-2.92-.42Z"/>
          <path class="cls-1" d="M545.54,42.96l4.79-.42-.23,2.05c1.17-.89,2.37-1.59,3.6-2.11,1.23-.51,2.62-.84,4.16-.97,1.78-.15,3.16.22,4.14,1.11.99.9,1.47,2.17,1.44,3.83-.01.61-.1,1.3-.27,2.05l-3.13,13.84-5.21.45,3.05-13.52c.14-.52.21-1.06.22-1.62.01-.77-.19-1.29-.61-1.59-.42-.29-1.13-.4-2.13-.31-1.06.09-2.13.39-3.23.89-1.1.5-2,1.09-2.71,1.76l-3.42,15.16-5.21.45,4.76-21.04Z"/>
          <path class="cls-1" d="M569.77,48.69c.67-2.88,1.91-5.07,3.72-6.55,1.81-1.48,4.48-2.38,8.01-2.68,1.13-.1,2.24-.07,3.31.09l8.38-.73-1.19,4.04-2.9.25c.35.73.51,1.56.5,2.48,0,.51-.07.97-.18,1.39l-2.96,13.06-5.21.45,3.05-13.45c.11-.44.17-.89.18-1.35.02-.89-.28-1.5-.87-1.83-.6-.33-1.61-.43-3.02-.31-1.7.15-2.97.56-3.8,1.23-.83.67-1.4,1.7-1.71,3.07l-.87,3.78c1.27-.93,2.58-1.45,3.92-1.56l2.51-.22-.8,4.16-2.78.24c-1.37.12-2.62.6-3.76,1.43l-1.25,5.61-5.21.45,2.96-13.06Z"/>
          <path class="cls-1" d="M596.09,58.54c-.61-.39-.91-1.07-.89-2.04,0-.36.08-.86.22-1.51l2.92-12.86c.64-2.63,1.93-4.61,3.88-5.95l-5.6.49.92-4.09,11.89-1.03-.88,3.82c-1.37.58-2.46,1.39-3.26,2.44-.8,1.05-1.4,2.42-1.79,4.11l-2.55,11.26c-.08.34-.13.61-.13.81,0,.28.08.48.26.59.18.11.5.15.96.11l1.43-.12-.92,4.09-3.55.31c-1.34.12-2.31-.02-2.92-.42Z"/>
          <path class="cls-1" d="M612.69,37.14l4.79-.41-.23,2.04c1.17-.89,2.37-1.59,3.6-2.11,1.23-.51,2.62-.84,4.16-.97,1.78-.15,3.16.22,4.14,1.11.99.9,1.47,2.17,1.44,3.83-.01.61-.1,1.3-.27,2.05l-3.13,13.84-5.21.45,3.05-13.52c.14-.52.21-1.06.22-1.62.01-.77-.19-1.29-.61-1.59-.42-.29-1.13-.4-2.13-.31-1.06.09-2.13.39-3.23.89-1.1.5-2,1.09-2.71,1.76l-3.42,15.16-5.21.45,4.76-21.04Z"/>
          <path class="cls-1" d="M636.56,54.82c-1.61-.7-2.4-1.97-2.36-3.81,0-.48.07-.95.18-1.39.22-.96.64-1.86,1.26-2.69.62-.83,1.42-1.53,2.41-2.1-.54-.23-.96-.6-1.27-1.09-.31-.5-.46-1.1-.45-1.81,0-.36.05-.73.14-1.12.47-2.03,1.43-3.63,2.88-4.8,1.45-1.17,3.26-1.85,5.45-2.04,1.44-.13,2.6-.05,3.47.23l-.88,3.86c-.69-.14-1.55-.17-2.58-.08-.98.08-1.74.32-2.29.69-.55.38-.92.95-1.11,1.7-.06.31-.09.52-.09.62-.01.59.22.98.67,1.18.46.2,1.18.26,2.16.18l2.16-.19-.68,3.84-2.39.21c-2.19.19-3.49,1.18-3.91,2.97-.06.31-.09.52-.09.62-.01.69.31,1.17.98,1.44.66.27,1.78.34,3.35.21,1.72-.15,3.05-.6,3.98-1.36.93-.75,1.54-1.81,1.85-3.16l3.01-13.25,5.21-.45-2.88,12.78c-.72,3.04-2.01,5.31-3.88,6.81-1.86,1.5-4.53,2.4-8.01,2.7-2.58.22-4.67-.02-6.27-.72Z"/>
        </g>
        <g>
          <path class="cls-1" d="M208.2,56.44c-1.03-.57-2.29-.79-3.79-.66l-6.2.54-1.32,8.82,6.53-.57c1.54-.14,2.84-.59,3.92-1.37,1.05-.78,1.72-1.96,1.99-3.54.27-1.57-.12-2.65-1.13-3.23Z"/>
          <path class="cls-1" d="M239.82,68.26c-.96-.55-2.18-.77-3.68-.64l-7.13.62-1.28,8.5,6.99-.61c1.68-.15,3.11-.61,4.31-1.38,1.19-.76,1.86-1.93,2-3.49.13-1.42-.26-2.43-1.22-3Z"/>
          <path class="cls-1" d="M136.3,79.63c-1.21.47-2.28,1.09-3.2,1.83-.9.76-1.46,1.67-1.63,2.75-.13.98.33,1.7,1.39,2.17,1.04.47,2.25.56,3.65.27,1.39-.28,2.71-.99,4-2.12,1.29-1.13,2.1-2.79,2.44-5l.28-1.41c-.9.08-1.98.23-3.24.46-1.26.22-2.49.57-3.69,1.05Z"/>
          <path class="cls-1" d="M241.19,52.79c-.9-.39-2.1-.51-3.6-.38l-6.21.54-1.23,8.02,6.6-.58c1.45-.13,2.71-.56,3.78-1.28,1.06-.74,1.66-1.94,1.8-3.59.15-1.43-.23-2.34-1.14-2.73Z"/>
          <path class="cls-1" d="M40.51,48.52l-9.53,63.12,268.62-23.5,9.53-63.12L40.51,48.52ZM72.98,97.78l-10.05.88,4.9-31.46-10.97.96,1.25-7.84,31.83-2.78-1.25,7.84-10.89.95-4.82,31.45ZM119.05,74.41l-3.01,19.53-9.43.82,2.64-17.56c.19-1.35.1-2.38-.23-3.06-.35-.68-.83-1.1-1.46-1.25-.63-.14-1.36-.06-2.18.26-.82.32-1.61.8-2.34,1.44-.75.65-1.42,1.43-2,2.32-.6.9-.98,1.86-1.14,2.85l-2.41,15.79-9.45.83,6.09-39.22,9.05-.79-2.24,14.3c1.8-1.77,3.84-3.06,6.12-3.89,2.26-.83,4.34-1.1,6.26-.82,1.9.28,3.43,1.12,4.58,2.49,1.16,1.38,1.53,3.36,1.14,5.95ZM153.85,71.09l-1.37,8.92c-.07.46-.17,1.18-.33,2.14-.15.95-.3,1.95-.45,2.95-.16,1-.24,1.94-.23,2.82,0,.88.11,1.47.35,1.77l.81,1.11-10.05.88c-.48-.66-.74-1.44-.77-2.36-1.58,1.43-3.24,2.42-5.01,2.97-1.75.55-3.64.91-5.65,1.09-1.79.16-3.35.06-4.68-.28-1.34-.35-2.43-.9-3.25-1.66-.84-.77-1.43-1.67-1.76-2.73-.33-1.05-.39-2.22-.18-3.48.35-2.2,1.35-4.05,3.03-5.54,1.68-1.48,3.66-2.68,5.94-3.61,2.29-.91,4.68-1.58,7.16-2.04,2.49-.45,4.68-.74,6.59-.85l.17-1.6c.11-.61,0-1.1-.32-1.47-.32-.37-.75-.64-1.26-.83-.53-.18-1.11-.28-1.75-.29-.64-.02-1.22,0-1.74.04-3.22.28-5.35,1.81-6.38,4.58l-8.48-.29c.73-1.92,1.69-3.55,2.84-4.9,1.15-1.35,2.49-2.46,3.98-3.33,1.49-.87,3.12-1.52,4.88-1.95,1.78-.43,3.64-.7,5.59-.83,4.76-.32,8.13.22,10.11,1.61,1.99,1.39,2.72,3.77,2.22,7.15ZM165.37,89.63l-9.66.85,4.47-29.01,9.66-.84-4.47,29.01ZM170.35,57.45l-9.73.85,1.08-6.82,9.74-.85-1.09,6.82ZM212.23,68.92c-1.42,1.01-2.97,1.79-4.62,2.34-1.65.54-3.24.89-4.79,1.02l-7.19.63-2.24,14.21-8.58.75,6.12-38.9,12.99-1.14c2.25-.2,4.34-.16,6.28.11,1.93.28,3.56.87,4.9,1.78,1.33.9,2.29,2.17,2.88,3.8.6,1.63.65,3.71.16,6.24-.37,2.07-1.1,3.86-2.17,5.38-1.06,1.5-2.32,2.77-3.75,3.78ZM249.42,66.27c.91,1.65,1.05,3.65.42,6.02-.55,2.08-1.36,3.81-2.41,5.19-1.07,1.38-2.29,2.5-3.67,3.35-1.4.86-2.87,1.48-4.44,1.89-1.57.4-3.15.67-4.74.81l-16.63,1.45,6.05-38.89,13.07-1.14c1.89-.17,3.72-.25,5.5-.25,1.76,0,3.3.26,4.61.8,1.31.53,2.36,1.38,3.14,2.59.79,1.19,1.19,2.87,1.17,5.05-.02,2.12-.58,3.98-1.67,5.56-1.09,1.59-2.56,2.92-4.4,4.01,1.77.74,3.1,1.92,4,3.58ZM265.64,53.91c.17.71.74,1.28,1.68,1.69.72.28,1.49.48,2.32.59.82.1,1.64.23,2.44.38,1.47.22,2.94.53,4.41.91,1.49.37,2.78.96,3.88,1.75,1.1.79,1.93,1.87,2.49,3.24.56,1.37.65,3.14.28,5.3-.34,2.03-1.04,3.84-2.1,5.44-1.07,1.6-2.39,2.97-3.96,4.1-1.58,1.13-3.33,2.05-5.28,2.73-1.92.67-3.9,1.1-5.92,1.28-1.84.16-3.56.11-5.14-.18-1.58-.28-2.98-.83-4.16-1.62-1.19-.81-2.15-1.88-2.88-3.19-.73-1.31-1.17-2.93-1.31-4.86l8.22-2.58c.36,3.57,2.52,5.15,6.48,4.76,1.98-.22,3.63-.69,4.93-1.4,1.31-.71,2.08-1.8,2.31-3.29.16-1.07-.2-1.85-1.11-2.29-.91-.45-2.07-.8-3.5-1.03-1.43-.23-2.96-.46-4.61-.7-1.65-.22-3.15-.7-4.48-1.43-1.35-.72-2.39-1.79-3.15-3.18-.76-1.39-.94-3.38-.55-5.93.3-1.84.96-3.52,1.96-5.03,1-1.51,2.21-2.8,3.61-3.91,1.4-1.09,2.93-1.97,4.6-2.63,1.66-.65,3.33-1.06,5-1.21,3.43-.34,6.22.17,8.37,1.54,2.14,1.37,3.49,3.69,4,6.96l-7.94,2.76c-.38-1.38-.97-2.38-1.78-3-.81-.61-2.01-.9-3.59-.84-1.2.06-2.24.35-3.14.91-.9.54-1.57,1.17-2,1.87-.42.7-.55,1.41-.38,2.13Z"/>
        </g>
        <path class="cls-1" d="M321.38,125.25c.47-3.02,1.5-5.9,2.44-8.22l12.41-1.06-.74,4.72c-.47,3.02,1.42,4.35,4.91,4.05l30.63-2.62-1.81,11.52-36.83,3.15c-8.72.75-12.34-3.04-11-11.53Z"/>
        <g>
          <polygon class="cls-1" points="165.95 147.9 294.76 136.56 297.86 116.8 169.04 128.14 165.95 147.9"/>
          <polygon class="cls-1" points="42.37 158.78 81.16 155.37 84.27 135.58 25.54 140.77 0 304.4 232.82 283.85 235.83 264.09 22.68 283.17 42.37 158.78"/>
          <path class="cls-1" d="M463.98,102.24v.06s-63.18,5.56-63.18,5.56l-3.08,19.65,63.13-5.51-19.63,124.03-90.98,8.01-3.19,19.77,199.27-17.53h0s76.34-6.72,76.34-6.72l25.66-163.58-184.35,16.27ZM538.98,143.16l-1.16,7.4-16.29,1.4,1.22-7.76c1.6-10.22-1.42-14.83-9.75-14.12-8.33.71-12.9,5.97-14.51,16.2l-4.9,31.2.54-.05c4.35-6.11,10.94-10.5,20.89-11.35,15.39-1.32,20.4,6.6,18.18,20.7l-3.87,24.68c-2.88,18.33-13.41,29.67-33.86,31.42-20.46,1.75-27.67-8.06-24.79-26.4l10.73-68.39c2.99-19.04,14.19-30.08,33.38-31.73,19.19-1.64,27.18,7.76,24.19,26.8ZM611.08,136.63l-10.73,68.39c-3.1,19.74-14.01,30.07-33.37,31.73-19.19,1.64-27.11-7.07-24.01-26.81l1.33-8.46,16.29-1.39-1.38,8.81c-1.58,10.05,1.6,14.82,9.57,14.14,8.14-.7,13.11-6.17,14.69-16.21l5.17-32.96-.72.06c-4.17,6.1-10.93,10.5-20.71,11.34-15.57,1.33-20.4-6.6-18.18-20.7l3.6-22.92c2.96-18.86,13.59-29.68,33.68-31.4,20.09-1.72,27.75,7.54,24.79,26.4Z"/>
          <path class="cls-1" d="M487.62,215.55c-1.58,10.05,1.42,14.83,9.93,14.11,8.51-.73,13.11-6.17,14.69-16.21l3.43-21.86c1.33-8.46-1.6-12.56-9.38-11.89-8.51.73-14.1,6.77-15.48,15.59l-3.18,20.27Z"/>
          <path class="cls-1" d="M584.22,123.46c-8.33.71-13.11,6.17-14.69,16.21l-3.15,20.09c-1.33,8.46,1.78,12.54,9.38,11.89,8.33-.71,14.28-6.79,15.66-15.6l2.9-18.51c1.58-10.05-1.6-14.82-10.11-14.09Z"/>
        </g>
        <path class="cls-1" d="M346.37,106.48l2.13-.18c3.87-.33,6.26-2.4,6.74-5.8.53-3.78-1.34-5.48-5.21-5.15l-3.68.32.97-6.98c3.26-1.4,7.01-2.28,10.69-2.6,8.52-.73,13.1,2.05,12.18,8.65-.47,3.4-2.47,6.74-5.8,8.71l-.08.57,25.36-2.18-1.61,11.52-43.17,3.7,1.48-10.57Z"/>
      </g>
      <polygon class="cls-1" points="625.67 249.52 619.65 249.82 645.31 86.25 651.33 85.72 625.67 249.52"/>
    </g>
  </g>
</svg>